<svg width="218" height="163" viewBox="0 0 218 163" fill="none" xmlns="http://www.w3.org/2000/svg">
<path d="M217.957 54.3398H166.355V125.34H217.957L195.986 89.8398L217.957 54.3398Z" fill="url(#paint0_linear_525_561)"/>
<path d="M0.366272 54.3398H51.9678V125.34H0.366272L22.337 89.8398L0.366272 54.3398Z" fill="url(#paint1_linear_525_561)"/>
<path d="M51.804 125.294L38.1595 117.119H51.804V125.294Z" fill="#969DA3"/>
<path d="M166.356 125.294L180 117.119H166.356V125.294Z" fill="#969DA3"/>
<path d="M96.2879 15.0025C103.076 7.44026 114.924 7.44026 121.712 15.0025C125.801 19.5583 132.016 21.5775 138.002 20.2954C147.938 18.1671 157.524 25.1316 158.57 35.2393C159.201 41.3285 163.041 46.6149 168.638 49.0961C177.927 53.2147 181.589 64.4835 176.494 73.2758C173.425 78.5727 173.425 85.107 176.494 90.4038C181.589 99.1962 177.927 110.465 168.638 114.584C163.041 117.065 159.201 122.351 158.57 128.44C157.524 138.548 147.938 145.513 138.002 143.384C132.016 142.102 125.801 144.121 121.712 148.677C114.924 156.239 103.076 156.239 96.2879 148.677C92.1988 144.121 85.9843 142.102 79.9983 143.384C70.0619 145.513 60.4761 138.548 59.4297 128.44C58.7994 122.351 54.9586 117.065 49.3622 114.584C40.0725 110.465 36.4111 99.1962 41.5057 90.4038C44.5749 85.107 44.5749 78.5727 41.5057 73.2759C36.4111 64.4835 40.0725 53.2147 49.3622 49.0961C54.9586 46.6149 58.7994 41.3285 59.4297 35.2393C60.4761 25.1316 70.0619 18.1671 79.9983 20.2954C85.9843 21.5775 92.1988 19.5583 96.2879 15.0025Z" fill="url(#paint2_linear_525_561)"/>
<circle cx="109" cy="81.8398" r="57.0322" fill="url(#paint3_linear_525_561)"/>
<circle cx="109" cy="81.8398" r="42.5459" fill="url(#paint4_linear_525_561)"/>
<rect width="142" height="71" transform="translate(38 46)" fill="white"/>
<path d="M86.7388 91.8567H84.2969V70.9341H92.1533C96.8246 70.9341 99.1603 74.2602 99.1603 77.5864C99.1603 80.9126 96.8246 84.2387 92.2595 84.2387H86.7388V91.8567ZM96.7185 77.6937C96.7185 75.5478 95.2321 73.4019 92.1533 73.5092H86.7388V81.8782H92.1533C95.2321 81.8782 96.7185 79.7323 96.7185 77.6937Z" fill="#131B3B"/>
<path d="M100.54 91.8567V70.9341H107.547C111.476 70.9341 115.404 72.7581 115.404 77.1572V85.5263C115.404 89.9254 111.476 91.7494 107.547 91.7494H100.54V91.8567ZM107.547 89.3889C110.308 89.3889 112.962 88.316 112.962 85.6336V77.2645C112.962 74.4748 110.308 73.5092 107.547 73.5092H102.982V89.3889H107.547Z" fill="#131B3B"/>
<path d="M122.623 70.9341H125.596L133.027 91.7494H130.479L128.144 85.0971H120.181C119.438 87.243 118.589 89.6035 117.846 91.7494H115.298L122.623 70.9341ZM127.294 82.6293C126.127 79.4104 125.277 76.9426 124.109 73.6165C123.048 76.728 122.092 79.5177 120.924 82.6293H127.294Z" fill="#131B3B"/>
<path d="M141.733 100.547H75.5912V62.3498H141.733V100.547ZM143.326 60.8477H73.9987V102.156H143.219V60.8477H143.326Z" fill="#131B3B"/>
<defs>
<linearGradient id="paint0_linear_525_561" x1="217.957" y1="88.3858" x2="156.045" y2="88.3858" gradientUnits="userSpaceOnUse">
<stop stop-color="#EAF7FC"/>
<stop offset="1" stop-color="#EAF7FC" stop-opacity="0"/>
</linearGradient>
<linearGradient id="paint1_linear_525_561" x1="0.366272" y1="88.3858" x2="62.2782" y2="88.3858" gradientUnits="userSpaceOnUse">
<stop stop-color="#EAF7FC"/>
<stop offset="1" stop-color="#EAF7FC" stop-opacity="0"/>
</linearGradient>
<linearGradient id="paint2_linear_525_561" x1="109" y1="5.76225" x2="109" y2="202.071" gradientUnits="userSpaceOnUse">
<stop stop-color="#47ACD9"/>
<stop offset="1" stop-color="#47ACD9" stop-opacity="0"/>
</linearGradient>
<linearGradient id="paint3_linear_525_561" x1="109" y1="24.8076" x2="109" y2="138.872" gradientUnits="userSpaceOnUse">
<stop stop-color="#177BC2"/>
<stop offset="1" stop-color="#177BC2" stop-opacity="0"/>
</linearGradient>
<linearGradient id="paint4_linear_525_561" x1="109" y1="9.14331" x2="109" y2="124.386" gradientUnits="userSpaceOnUse">
<stop stop-color="#72C1E3"/>
<stop offset="1" stop-color="#72C1E3" stop-opacity="0"/>
</linearGradient>
</defs>
</svg>
